<?xml version="1.0" encoding="utf-8"?>
<!-- Generator: Adobe Illustrator 27.2.0, SVG Export Plug-In . SVG Version: 6.00 Build 0)  -->
<svg version="1.1" id="Layer_1" xmlns="http://www.w3.org/2000/svg" xmlns:xlink="http://www.w3.org/1999/xlink" x="0px" y="0px"
	 viewBox="0 0 1717.79 406.47" style="enable-background:new 0 0 1717.79 406.47;" xml:space="preserve">
<style type="text/css">
	.st0{fill:#E87876;}
	.st1{fill:#78BADE;}
	.st2{fill:#FFFFFF;}
	.st3{fill:#F16623;}
	.st4{fill:#E21E27;}
	.st5{fill:#F89E1E;}
	.st6{fill:#020202;}
	.st7{fill:#0C3C37;}
	.st8{fill:url(#SVGID_1_);}
	.st9{fill:url(#SVGID_00000006708034393397444400000012253924463689918852_);}
	.st10{fill:url(#SVGID_00000081611513692427053670000012635781303149214111_);}
	.st11{fill:#C6AD92;}
	.st12{fill:#8BC53F;}
	.st13{fill:#C5E672;}
	.st14{fill:#2E671A;}
	.st15{fill:#84B829;}
	.st16{fill:#ADDD37;}
	.st17{fill:#9AEBEF;}
	.st18{fill:url(#SVGID_00000072281842716967129360000004408397046372989365_);}
	.st19{fill:#754C28;}
	.st20{fill:#26A9E0;}
	.st21{fill:none;}
	.st22{fill:#B3D261;}
	.st23{fill:#F3F3F3;}
	.st24{fill:#288B47;}
	.st25{fill:#277413;}
	.st26{fill:#F0F4ED;}
	.st27{clip-path:url(#SVGID_00000127013085443520551150000009112424310239348611_);}
	.st28{fill:url(#SVGID_00000085955460976662584430000012941906948791841446_);}
	.st29{fill:#231F20;}
	.st30{fill-rule:evenodd;clip-rule:evenodd;fill:#0C3C37;}
	.st31{fill:#FFE196;}
	.st32{fill:url(#SVGID_00000082363372974871586390000014407984644926587835_);}
	.st33{fill:#88D969;}
	.st34{fill:#06A10B;}
	.st35{fill:url(#SVGID_00000139974813207036802160000013785358086856599449_);}
	.st36{fill:url(#SVGID_00000057835188479886079760000010816226529278151810_);}
	.st37{fill:url(#SVGID_00000163042383594423485370000004046512982376716193_);}
	.st38{fill:url(#SVGID_00000151536205671261628010000015654603548905931707_);}
	.st39{fill:#F7BEBE;}
	.st40{fill:#1261A0;}
	.st41{fill:url(#SVGID_00000183931927865613440320000016101495708019448713_);}
	.st42{fill:url(#SVGID_00000178164094480127362170000002090219929523598734_);}
	.st43{fill:url(#SVGID_00000138562426640217085100000002968108583917500584_);}
	.st44{fill:#71C7EC;}
	.st45{fill:url(#SVGID_00000060001367860596738800000018293216939699946115_);}
	.st46{fill:url(#SVGID_00000131331350125399559140000018389170647006432431_);}
	.st47{fill:#AAE2DF;}
	.st48{fill:url(#SVGID_00000173138444174016106440000016064491584173077436_);}
	.st49{fill:url(#SVGID_00000144321416968757449490000014941617423743798933_);}
	.st50{fill:#FF80AB;}
	.st51{fill:url(#SVGID_00000129924490221395783090000015175037039269872544_);}
	.st52{fill:#C51162;}
	.st53{fill:url(#SVGID_00000129194865117661482780000009657843357316609978_);}
	.st54{fill:url(#SVGID_00000121262942629222618050000001327660014044283778_);}
	.st55{fill:#36B1BF;}
	.st56{fill:#F5A503;}
	.st57{fill:#F2385A;}
	.st58{fill:#FCFCFC;}
	.st59{clip-path:url(#SVGID_00000076573142008664103530000011018234566923727799_);}
	.st60{fill-rule:evenodd;clip-rule:evenodd;fill:#8BC53F;}
	.st61{fill:#8DC540;}
	.st62{fill:url(#SVGID_00000031910305254675089320000003515110181074951080_);}
	.st63{fill:url(#);}
</style>
<g>
	<path class="st61" d="M258.06,286.5l-18.61-44.98h-61.94L158.2,286.5h-35.56l72.54-174.05h25.44l73.01,174.05H258.06z
		 M207.9,157.91l-18.61,52.76h37.21L207.9,157.91z"/>
	<path class="st61" d="M366.87,338.55c-32.03,0-56.52-15.31-67.12-41.45h35.56c9.19,10.13,18.13,13.89,32.74,13.89
		c23.32,0,35.33-13.66,36.5-41.69c-12.25,14.37-24.49,20.26-42.86,20.26c-37.21,0-64.06-28.97-64.06-69.24
		c0-38.63,27.32-67.36,64.3-67.36c18.84,0,32.97,6.36,42.63,19.55v-16.49h29.91v105.75C434.47,317.83,407.38,338.55,366.87,338.55z
		 M365.46,181.69c-21.9,0-36.27,16.02-36.27,40.04c0,23.79,14.37,39.09,36.74,39.09c22.37,0,37.21-15.54,37.21-39.09
		C403.14,197.95,387.84,181.69,365.46,181.69z"/>
	<path class="st61" d="M493.59,213.96v72.54h-31.32V156.02h28.73v12.72c8.24-12.01,14.84-15.78,28.26-15.78h2.36v30.15
		C502.77,183.58,493.59,193.71,493.59,213.96z"/>
	<path class="st61" d="M537.62,286.5V156.02h31.32V286.5H537.62z M537.86,137.18v-31.32h31.32v31.32H537.86z"/>
	<path class="st19" d="M683.17,289.56c-52.05,0-91.38-38.63-91.38-89.5c0-52.05,38.39-90.68,90.2-90.68
		c36.03,0,66.65,18.37,80.08,48.28h-19.55c-14.84-23.32-35.33-32.27-59.82-32.27c-41.45,0-73.25,32.03-73.25,73.95
		c0,40.74,33.21,74.19,73.48,74.19c25.44,0,42.16-9.66,60.53-32.74h19.31C745.35,273.08,718.5,289.56,683.17,289.56z"/>
	<path class="st19" d="M851.81,289.56c-40.04,0-69.01-28.73-69.01-68.3c0-37.68,29.44-66.65,67.59-66.65
		c38.63,0,66.89,28.5,66.89,67.83C917.28,261.06,889.49,289.56,851.81,289.56z M850.39,170.63c-28.5,0-49.93,21.9-49.93,51.11
		c0,30.15,21.2,51.81,50.87,51.81c28.03,0,48.28-21.43,48.28-50.87C899.62,192.76,878.66,170.63,850.39,170.63z"/>
	<path class="st19" d="M1038.58,286.5v-67.59c0-35.09-16.02-48.28-39.8-48.28c-23.32,0-39.33,13.43-39.33,44.98v70.89h-17.43V157.67
		h17.43v16.72c10.83-13.19,24.49-19.78,41.45-19.78c32.26,0,55.11,19.08,55.11,64.3v67.59H1038.58z"/>
	<path class="st19" d="M1182.24,286.5v-67.59c0-35.09-16.02-48.28-39.8-48.28c-23.32,0-39.33,13.43-39.33,44.98v70.89h-17.43V157.67
		h17.43v16.72c10.83-13.19,24.49-19.78,41.45-19.78c32.27,0,55.11,19.08,55.11,64.3v67.59H1182.24z"/>
	<path class="st19" d="M1241.83,227.86c1.41,25.44,23.79,45.69,50.17,45.69c19.55,0,37.68-11.78,44.98-29.44h18.14
		c-8.25,24.49-33.45,45.46-62.65,45.46c-38.15,0-68.07-29.91-68.07-68.07c0-37.45,29.44-66.89,66.89-66.89
		c38.15,0,67.12,27.56,67.12,73.25H1241.83z M1291.05,170.63c-24.49,0-44.04,16.72-48.75,41.45h98.68
		C1335.09,186.4,1316.02,170.63,1291.05,170.63z"/>
	<path class="st19" d="M1447.67,289.56c-39.57,0-70.19-29.44-70.19-67.83c0-37.45,30.38-67.12,69.01-67.12
		c28.97,0,53.7,16.25,64.06,42.16h-19.55c-9.89-16.96-25.67-26.14-44.75-26.14c-28.73,0-51.11,22.61-51.11,51.58
		c0,28.5,22.85,51.34,51.81,51.34c18.14,0,30.62-7.07,44.04-24.97h19.78C1495.25,278.02,1474.29,289.56,1447.67,289.56z"/>
	<path class="st19" d="M1568.02,173.45V286.5h-17.43V173.45h-27.79v-15.78h27.79v-45.22h17.43v45.22h28.97v15.78H1568.02z"/>
</g>
<g>
	<path class="st19" d="M464.32,336.58v-15.36h6.73c1.64,0,3.09,0.32,4.35,0.95c1.26,0.64,2.25,1.53,2.95,2.69
		c0.7,1.16,1.05,2.5,1.05,4.04c0,1.54-0.35,2.88-1.05,4.04c-0.7,1.16-1.69,2.05-2.95,2.69c-1.27,0.64-2.72,0.95-4.35,0.95H464.32z
		 M467.17,334.17h3.71c1.16,0,2.15-0.22,2.99-0.66c0.84-0.44,1.5-1.05,1.97-1.84s0.71-1.71,0.71-2.76c0-1.08-0.24-2.01-0.71-2.79
		s-1.13-1.38-1.97-1.82c-0.84-0.44-1.84-0.66-2.99-0.66h-3.71V334.17z"/>
	<path class="st19" d="M482.44,336.58v-15.36h2.85v15.36H482.44z"/>
	<path class="st19" d="M496.61,336.8c-1.2,0-2.3-0.19-3.3-0.58c-1-0.39-1.88-0.94-2.62-1.66c-0.75-0.72-1.32-1.55-1.73-2.5
		c-0.41-0.95-0.61-2-0.61-3.16s0.2-2.21,0.61-3.16c0.41-0.95,0.99-1.78,1.74-2.5c0.75-0.72,1.63-1.27,2.63-1.66
		c1-0.39,2.12-0.58,3.35-0.58c1.29,0,2.45,0.21,3.5,0.64c1.05,0.42,1.93,1.05,2.64,1.87l-1.8,1.75c-0.6-0.6-1.25-1.04-1.94-1.33
		c-0.69-0.29-1.46-0.43-2.29-0.43c-0.82,0-1.57,0.13-2.25,0.39c-0.68,0.26-1.27,0.64-1.77,1.12c-0.5,0.48-0.88,1.05-1.16,1.71
		s-0.42,1.38-0.42,2.17c0,0.78,0.14,1.5,0.42,2.16c0.28,0.67,0.67,1.24,1.16,1.72c0.5,0.48,1.08,0.86,1.75,1.12
		c0.67,0.26,1.42,0.4,2.24,0.4c0.76,0,1.5-0.12,2.2-0.36c0.71-0.24,1.39-0.65,2.03-1.22l1.6,2.13c-0.79,0.64-1.71,1.13-2.76,1.46
		C498.78,336.64,497.71,336.8,496.61,336.8z M499.93,334.48v-5.73h2.68v6.1L499.93,334.48z"/>
	<path class="st19" d="M506.37,336.58v-15.36h2.85v15.36H506.37z"/>
	<path class="st19" d="M516.49,336.58v-12.94h-5.09v-2.41h13.03v2.41h-5.09v12.94H516.49z"/>
	<path class="st19" d="M523.64,336.58l6.91-15.36h2.81l6.93,15.36h-3.01l-5.92-13.84h1.14l-5.94,13.84H523.64z M526.82,333.03
		l0.79-2.24h8.27l0.77,2.24H526.82z"/>
	<path class="st19" d="M542.24,336.58v-15.36h2.85v12.94h8.03v2.41H542.24z"/>
	<path class="st19" d="M555.38,336.58v-15.36h2.85v12.94h8.03v2.41H555.38z"/>
	<path class="st19" d="M570.69,336.58v-6.08l0.66,1.73l-6.69-11.01h3.03l5.4,8.88h-1.71l5.37-8.88h2.81l-6.67,11.01l0.64-1.73v6.08
		H570.69z"/>
	<path class="st19" d="M590.33,334.17h8.67v2.41h-11.52v-15.36h11.21v2.41h-8.36V334.17z M590.11,327.61h7.63v2.35h-7.63V327.61z"/>
	<path class="st19" d="M602.17,336.58v-15.36h2.35l6.71,11.21H610l6.6-11.21h2.35l0.04,15.36h-2.74v-11.12h0.55l-5.57,9.39h-1.29
		l-5.7-9.39h0.66v11.12H602.17z"/>
	<path class="st19" d="M623.12,336.58v-15.36h6.32c1.36,0,2.53,0.22,3.5,0.65c0.97,0.43,1.72,1.06,2.25,1.88s0.79,1.8,0.79,2.94
		c0,1.13-0.26,2.09-0.79,2.91c-0.53,0.81-1.28,1.44-2.25,1.89c-0.97,0.45-2.14,0.67-3.5,0.67h-4.72l1.25-1.32v5.75H623.12z
		 M625.97,331.14l-1.25-1.4h4.58c1.26,0,2.2-0.27,2.84-0.8c0.64-0.53,0.95-1.28,0.95-2.25s-0.32-1.71-0.95-2.25
		c-0.64-0.53-1.58-0.8-2.84-0.8h-4.58l1.25-1.4V331.14z"/>
	<path class="st19" d="M646.24,336.8c-1.18,0-2.29-0.2-3.3-0.59c-1.02-0.39-1.9-0.95-2.64-1.67s-1.32-1.55-1.73-2.51
		c-0.41-0.96-0.61-2-0.61-3.13c0-1.14,0.2-2.19,0.61-3.15c0.41-0.96,0.99-1.79,1.73-2.5c0.75-0.71,1.62-1.26,2.63-1.66
		c1.01-0.39,2.11-0.59,3.31-0.59c1.18,0,2.28,0.19,3.29,0.58c1.01,0.39,1.88,0.94,2.62,1.65c0.74,0.71,1.31,1.55,1.72,2.51
		c0.41,0.96,0.61,2.02,0.61,3.16s-0.21,2.19-0.61,3.15c-0.41,0.96-0.98,1.8-1.72,2.51c-0.74,0.72-1.61,1.27-2.62,1.66
		C648.53,336.61,647.43,336.8,646.24,336.8z M646.24,334.3c0.77,0,1.49-0.13,2.14-0.4c0.65-0.26,1.22-0.64,1.7-1.12
		c0.48-0.48,0.86-1.05,1.13-1.71s0.41-1.38,0.41-2.17c0-0.79-0.13-1.51-0.39-2.17s-0.64-1.23-1.13-1.71
		c-0.49-0.48-1.06-0.86-1.71-1.12c-0.65-0.26-1.36-0.39-2.14-0.39c-0.78,0-1.5,0.13-2.16,0.39c-0.67,0.26-1.24,0.64-1.72,1.13
		c-0.48,0.49-0.86,1.06-1.14,1.71c-0.28,0.65-0.42,1.37-0.42,2.16c0,0.78,0.14,1.49,0.42,2.15s0.66,1.23,1.14,1.72
		c0.48,0.49,1.06,0.87,1.72,1.13C644.75,334.17,645.47,334.3,646.24,334.3z"/>
	<path class="st19" d="M660.66,336.58l-5.09-15.36h2.96l4.54,13.89h-1.47l4.72-13.89h2.63l4.58,13.89h-1.43l4.65-13.89h2.72
		l-5.09,15.36h-3.03l-4.19-12.53h0.79l-4.23,12.53H660.66z"/>
	<path class="st19" d="M684.66,334.17h8.67v2.41H681.8v-15.36h11.21v2.41h-8.36V334.17z M684.44,327.61h7.63v2.35h-7.63V327.61z"/>
	<path class="st19" d="M696.5,336.58v-15.36h6.32c1.36,0,2.53,0.22,3.5,0.65c0.97,0.43,1.72,1.06,2.25,1.88s0.79,1.8,0.79,2.94
		c0,1.13-0.26,2.09-0.79,2.9c-0.53,0.8-1.28,1.43-2.25,1.87c-0.97,0.44-2.14,0.66-3.5,0.66h-4.72l1.25-1.27v5.75H696.5z
		 M699.35,331.14l-1.25-1.38h4.58c1.26,0,2.2-0.27,2.84-0.81s0.95-1.29,0.95-2.26s-0.32-1.71-0.95-2.25
		c-0.64-0.53-1.58-0.8-2.84-0.8h-4.58l1.25-1.4V331.14z M706.55,336.58l-3.88-5.57h3.05l3.91,5.57H706.55z"/>
	<path class="st19" d="M712.54,336.58v-15.36h2.85v15.36H712.54z"/>
	<path class="st19" d="M719.53,336.58v-15.36h2.35l9.63,11.85h-1.16v-11.85h2.81v15.36h-2.35l-9.61-11.85h1.16v11.85H719.53z"/>
	<path class="st19" d="M744.48,336.8c-1.2,0-2.3-0.19-3.3-0.58c-1-0.39-1.88-0.94-2.62-1.66c-0.75-0.72-1.32-1.55-1.73-2.5
		c-0.41-0.95-0.61-2-0.61-3.16s0.2-2.21,0.61-3.16c0.41-0.95,0.99-1.78,1.74-2.5c0.75-0.72,1.63-1.27,2.63-1.66
		c1-0.39,2.12-0.58,3.35-0.58c1.29,0,2.45,0.21,3.5,0.64c1.05,0.42,1.93,1.05,2.64,1.87l-1.8,1.75c-0.6-0.6-1.25-1.04-1.94-1.33
		c-0.69-0.29-1.46-0.43-2.29-0.43c-0.82,0-1.57,0.13-2.25,0.39c-0.68,0.26-1.27,0.64-1.77,1.12c-0.5,0.48-0.88,1.05-1.16,1.71
		s-0.42,1.38-0.42,2.17c0,0.78,0.14,1.5,0.42,2.16c0.28,0.67,0.67,1.24,1.16,1.72c0.5,0.48,1.08,0.86,1.75,1.12
		c0.67,0.26,1.42,0.4,2.24,0.4c0.76,0,1.5-0.12,2.2-0.36c0.71-0.24,1.39-0.65,2.03-1.22l1.6,2.13c-0.79,0.64-1.71,1.13-2.76,1.46
		C746.65,336.64,745.57,336.8,744.48,336.8z M747.79,334.48v-5.73h2.68v6.1L747.79,334.48z"/>
	<path class="st19" d="M767.49,336.8c-1.18,0-2.29-0.2-3.3-0.59c-1.02-0.39-1.9-0.95-2.64-1.67s-1.32-1.55-1.73-2.51
		c-0.41-0.96-0.61-2-0.61-3.13c0-1.14,0.2-2.19,0.61-3.15c0.41-0.96,0.99-1.79,1.73-2.5c0.75-0.71,1.62-1.26,2.63-1.66
		c1.01-0.39,2.11-0.59,3.31-0.59c1.18,0,2.28,0.19,3.29,0.58c1.01,0.39,1.88,0.94,2.62,1.65c0.74,0.71,1.31,1.55,1.72,2.51
		c0.41,0.96,0.61,2.02,0.61,3.16s-0.21,2.19-0.61,3.15c-0.41,0.96-0.98,1.8-1.72,2.51c-0.74,0.72-1.61,1.27-2.62,1.66
		C769.77,336.61,768.67,336.8,767.49,336.8z M767.49,334.3c0.77,0,1.49-0.13,2.14-0.4c0.65-0.26,1.22-0.64,1.7-1.12
		c0.48-0.48,0.86-1.05,1.13-1.71s0.41-1.38,0.41-2.17c0-0.79-0.13-1.51-0.39-2.17s-0.64-1.23-1.13-1.71
		c-0.49-0.48-1.06-0.86-1.71-1.12c-0.65-0.26-1.36-0.39-2.14-0.39c-0.78,0-1.5,0.13-2.16,0.39c-0.67,0.26-1.24,0.64-1.72,1.13
		c-0.48,0.49-0.86,1.06-1.14,1.71c-0.28,0.65-0.42,1.37-0.42,2.16c0,0.78,0.14,1.49,0.42,2.15s0.66,1.23,1.14,1.72
		c0.48,0.49,1.06,0.87,1.72,1.13C765.99,334.17,766.71,334.3,767.49,334.3z"/>
	<path class="st19" d="M785.35,336.8c-2.09,0-3.73-0.59-4.92-1.78s-1.79-2.9-1.79-5.16v-8.64h2.85v8.55c0,1.58,0.34,2.73,1.02,3.44
		c0.68,0.72,1.64,1.08,2.88,1.08s2.2-0.36,2.87-1.08c0.67-0.72,1.01-1.86,1.01-3.44v-8.55h2.81v8.64c0,2.25-0.6,3.97-1.79,5.16
		S787.45,336.8,785.35,336.8z"/>
	<path class="st19" d="M796.07,336.58v-15.36h6.32c1.36,0,2.53,0.22,3.5,0.65c0.97,0.43,1.72,1.06,2.25,1.88s0.79,1.8,0.79,2.94
		c0,1.13-0.26,2.09-0.79,2.9c-0.53,0.8-1.28,1.43-2.25,1.87c-0.97,0.44-2.14,0.66-3.5,0.66h-4.72l1.25-1.27v5.75H796.07z
		 M798.92,331.14l-1.25-1.38h4.58c1.26,0,2.2-0.27,2.84-0.81s0.95-1.29,0.95-2.26s-0.32-1.71-0.95-2.25
		c-0.64-0.53-1.58-0.8-2.84-0.8h-4.58l1.25-1.4V331.14z M806.12,336.58l-3.88-5.57h3.05l3.91,5.57H806.12z"/>
	<path class="st19" d="M821.94,336.58v-6.08l0.66,1.73l-6.69-11.01h3.03l5.4,8.88h-1.71l5.37-8.88h2.81l-6.67,11.01l0.64-1.73v6.08
		H821.94z"/>
	<path class="st19" d="M839.2,336.8c-1.18,0-2.29-0.2-3.3-0.59c-1.02-0.39-1.9-0.95-2.64-1.67s-1.32-1.55-1.73-2.51
		c-0.41-0.96-0.61-2-0.61-3.13c0-1.14,0.2-2.19,0.61-3.15c0.41-0.96,0.99-1.79,1.73-2.5c0.75-0.71,1.62-1.26,2.63-1.66
		c1.01-0.39,2.11-0.59,3.31-0.59c1.18,0,2.28,0.19,3.29,0.58c1.01,0.39,1.88,0.94,2.62,1.65c0.74,0.71,1.31,1.55,1.72,2.51
		c0.41,0.96,0.61,2.02,0.61,3.16s-0.21,2.19-0.61,3.15c-0.41,0.96-0.98,1.8-1.72,2.51c-0.74,0.72-1.61,1.27-2.62,1.66
		C841.48,336.61,840.38,336.8,839.2,336.8z M839.2,334.3c0.77,0,1.49-0.13,2.14-0.4c0.65-0.26,1.22-0.64,1.7-1.12
		c0.48-0.48,0.86-1.05,1.13-1.71s0.41-1.38,0.41-2.17c0-0.79-0.13-1.51-0.39-2.17s-0.64-1.23-1.13-1.71
		c-0.49-0.48-1.06-0.86-1.71-1.12c-0.65-0.26-1.36-0.39-2.14-0.39c-0.78,0-1.5,0.13-2.16,0.39c-0.67,0.26-1.24,0.64-1.72,1.13
		c-0.48,0.49-0.86,1.06-1.14,1.71c-0.28,0.65-0.42,1.37-0.42,2.16c0,0.78,0.14,1.49,0.42,2.15s0.66,1.23,1.14,1.72
		c0.48,0.49,1.06,0.87,1.72,1.13C837.7,334.17,838.42,334.3,839.2,334.3z"/>
	<path class="st19" d="M857.06,336.8c-2.09,0-3.73-0.59-4.92-1.78s-1.79-2.9-1.79-5.16v-8.64h2.85v8.55c0,1.58,0.34,2.73,1.02,3.44
		c0.68,0.72,1.64,1.08,2.88,1.08s2.2-0.36,2.87-1.08c0.67-0.72,1.01-1.86,1.01-3.44v-8.55h2.81v8.64c0,2.25-0.6,3.97-1.79,5.16
		S859.16,336.8,857.06,336.8z"/>
	<path class="st19" d="M870.61,336.58v-12.94h-5.09v-2.41h13.03v2.41h-5.09v12.94H870.61z"/>
	<path class="st19" d="M883.56,336.58h-2.85v-15.36h2.85V336.58z M891.72,330h-8.38v-2.44h8.38V330z M891.5,321.23h2.83v15.36h-2.83
		V321.23z"/>
	<path class="st19" d="M907.64,336.58v-12.94h-5.09v-2.41h13.03v2.41h-5.09v12.94H907.64z"/>
	<path class="st19" d="M924.71,336.8c-1.18,0-2.29-0.2-3.3-0.59c-1.02-0.39-1.9-0.95-2.64-1.67s-1.32-1.55-1.73-2.51
		c-0.41-0.96-0.61-2-0.61-3.13c0-1.14,0.2-2.19,0.61-3.15c0.41-0.96,0.99-1.79,1.73-2.5c0.75-0.71,1.62-1.26,2.63-1.66
		c1.01-0.39,2.11-0.59,3.31-0.59c1.18,0,2.28,0.19,3.29,0.58c1.01,0.39,1.88,0.94,2.62,1.65c0.74,0.71,1.31,1.55,1.72,2.51
		c0.41,0.96,0.61,2.02,0.61,3.16s-0.21,2.19-0.61,3.15c-0.41,0.96-0.98,1.8-1.72,2.51c-0.74,0.72-1.61,1.27-2.62,1.66
		C926.99,336.61,925.89,336.8,924.71,336.8z M924.71,334.3c0.77,0,1.49-0.13,2.14-0.4c0.65-0.26,1.22-0.64,1.7-1.12
		c0.48-0.48,0.86-1.05,1.13-1.71s0.41-1.38,0.41-2.17c0-0.79-0.13-1.51-0.39-2.17s-0.64-1.23-1.13-1.71
		c-0.49-0.48-1.06-0.86-1.71-1.12c-0.65-0.26-1.36-0.39-2.14-0.39c-0.78,0-1.5,0.13-2.16,0.39c-0.67,0.26-1.24,0.64-1.72,1.13
		c-0.48,0.49-0.86,1.06-1.14,1.71c-0.28,0.65-0.42,1.37-0.42,2.16c0,0.78,0.14,1.49,0.42,2.15s0.66,1.23,1.14,1.72
		c0.48,0.49,1.06,0.87,1.72,1.13C923.21,334.17,923.93,334.3,924.71,334.3z"/>
	<path class="st19" d="M942.04,336.58v-15.36h2.85v12.94h8.03v2.41H942.04z"/>
	<path class="st19" d="M958.03,334.17h8.67v2.41h-11.52v-15.36h11.21v2.41h-8.36V334.17z M957.81,327.61h7.63v2.35h-7.63V327.61z"/>
	<path class="st19" d="M967.71,336.58l6.91-15.36h2.81l6.93,15.36h-3.01l-5.92-13.84h1.14l-5.94,13.84H967.71z M970.89,333.03
		l0.79-2.24h8.27l0.77,2.24H970.89z"/>
	<path class="st19" d="M986.31,336.58v-15.36h6.73c1.64,0,3.09,0.32,4.35,0.95c1.26,0.64,2.25,1.53,2.95,2.69
		c0.7,1.16,1.05,2.5,1.05,4.04c0,1.54-0.35,2.88-1.05,4.04c-0.7,1.16-1.69,2.05-2.95,2.69c-1.27,0.64-2.72,0.95-4.35,0.95H986.31z
		 M989.16,334.17h3.71c1.16,0,2.15-0.22,2.99-0.66c0.84-0.44,1.5-1.05,1.97-1.84s0.71-1.71,0.71-2.76c0-1.08-0.24-2.01-0.71-2.79
		s-1.13-1.38-1.97-1.82c-0.84-0.44-1.84-0.66-2.99-0.66h-3.71V334.17z"/>
	<path class="st19" d="M1013.6,336.58v-12.94h-5.09v-2.41h13.03v2.41h-5.09v12.94H1013.6z"/>
	<path class="st19" d="M1026.54,336.58h-2.85v-15.36h2.85V336.58z M1034.7,330h-8.38v-2.44h8.38V330z M1034.48,321.23h2.83v15.36
		h-2.83V321.23z"/>
	<path class="st19" d="M1044.31,334.17h8.67v2.41h-11.52v-15.36h11.21v2.41h-8.36V334.17z M1044.09,327.61h7.63v2.35h-7.63V327.61z"
		/>
	<path class="st19" d="M1062.21,336.58v-15.36h2.35l6.71,11.21h-1.23l6.6-11.21h2.35l0.04,15.36h-2.74v-11.12h0.55l-5.57,9.39h-1.29
		l-5.7-9.39h0.66v11.12H1062.21z"/>
	<path class="st19" d="M1090.35,336.8c-1.18,0-2.29-0.2-3.3-0.59c-1.02-0.39-1.9-0.95-2.64-1.67s-1.32-1.55-1.73-2.51
		c-0.41-0.96-0.61-2-0.61-3.13c0-1.14,0.2-2.19,0.61-3.15c0.41-0.96,0.99-1.79,1.73-2.5c0.75-0.71,1.62-1.26,2.63-1.66
		c1.01-0.39,2.11-0.59,3.31-0.59c1.18,0,2.28,0.19,3.29,0.58c1.01,0.39,1.88,0.94,2.62,1.65c0.74,0.71,1.31,1.55,1.72,2.51
		c0.41,0.96,0.61,2.02,0.61,3.16s-0.21,2.19-0.61,3.15c-0.41,0.96-0.98,1.8-1.72,2.51c-0.74,0.72-1.61,1.27-2.62,1.66
		C1092.64,336.61,1091.54,336.8,1090.35,336.8z M1090.35,334.3c0.77,0,1.49-0.13,2.14-0.4c0.65-0.26,1.22-0.64,1.7-1.12
		c0.48-0.48,0.86-1.05,1.13-1.71s0.41-1.38,0.41-2.17c0-0.79-0.13-1.51-0.39-2.17s-0.64-1.23-1.13-1.71
		c-0.49-0.48-1.06-0.86-1.71-1.12c-0.65-0.26-1.36-0.39-2.14-0.39c-0.78,0-1.5,0.13-2.16,0.39c-0.67,0.26-1.24,0.64-1.72,1.13
		c-0.48,0.49-0.86,1.06-1.14,1.71c-0.28,0.65-0.42,1.37-0.42,2.16c0,0.78,0.14,1.49,0.42,2.15s0.66,1.23,1.14,1.72
		c0.48,0.49,1.06,0.87,1.72,1.13C1088.86,334.17,1089.58,334.3,1090.35,334.3z"/>
	<path class="st19" d="M1104.48,334.17h8.67v2.41h-11.52v-15.36h11.21v2.41h-8.36V334.17z M1104.26,327.61h7.63v2.35h-7.63V327.61z"
		/>
	<path class="st19" d="M1116.33,336.58v-15.36h6.32c1.36,0,2.53,0.22,3.5,0.65c0.97,0.43,1.72,1.06,2.25,1.88s0.79,1.8,0.79,2.94
		c0,1.13-0.26,2.09-0.79,2.9c-0.53,0.8-1.28,1.43-2.25,1.87c-0.97,0.44-2.14,0.66-3.5,0.66h-4.72l1.25-1.27v5.75H1116.33z
		 M1119.18,331.14l-1.25-1.38h4.58c1.26,0,2.2-0.27,2.84-0.81s0.95-1.29,0.95-2.26s-0.32-1.71-0.95-2.25
		c-0.64-0.53-1.58-0.8-2.84-0.8h-4.58l1.25-1.4V331.14z M1126.37,336.58l-3.88-5.57h3.05l3.91,5.57H1126.37z"/>
	<path class="st19" d="M1132.36,336.58v-15.36h2.35l9.63,11.85h-1.16v-11.85h2.81v15.36h-2.35l-9.61-11.85h1.16v11.85H1132.36z"/>
	<path class="st19" d="M1150.13,336.58v-15.36h2.85v15.36H1150.13z"/>
	<path class="st19" d="M1155.97,336.58v-1.91l9.92-12.11l0.35,1.08h-10.11v-2.41h12.66v1.91l-9.92,12.11l-0.33-1.08h10.55v2.41
		H1155.97z"/>
	<path class="st19" d="M1169.5,336.58l6.91-15.36h2.81l6.93,15.36h-3.01l-5.92-13.84h1.14l-5.94,13.84H1169.5z M1172.68,333.03
		l0.79-2.24h8.27l0.77,2.24H1172.68z"/>
	<path class="st19" d="M1190.45,336.58v-12.94h-5.09v-2.41h13.03v2.41h-5.09v12.94H1190.45z"/>
	<path class="st19" d="M1200.54,336.58v-15.36h2.85v15.36H1200.54z"/>
	<path class="st19" d="M1214.74,336.8c-1.18,0-2.29-0.2-3.3-0.59c-1.02-0.39-1.9-0.95-2.64-1.67s-1.32-1.55-1.73-2.51
		c-0.41-0.96-0.61-2-0.61-3.13c0-1.14,0.2-2.19,0.61-3.15c0.41-0.96,0.99-1.79,1.73-2.5c0.75-0.71,1.62-1.26,2.63-1.66
		c1.01-0.39,2.11-0.59,3.31-0.59c1.18,0,2.28,0.19,3.29,0.58c1.01,0.39,1.88,0.94,2.62,1.65c0.74,0.71,1.31,1.55,1.72,2.51
		c0.41,0.96,0.61,2.02,0.61,3.16s-0.21,2.19-0.61,3.15c-0.41,0.96-0.98,1.8-1.72,2.51c-0.74,0.72-1.61,1.27-2.62,1.66
		C1217.02,336.61,1215.92,336.8,1214.74,336.8z M1214.74,334.3c0.77,0,1.49-0.13,2.14-0.4c0.65-0.26,1.22-0.64,1.7-1.12
		c0.48-0.48,0.86-1.05,1.13-1.71s0.41-1.38,0.41-2.17c0-0.79-0.13-1.51-0.39-2.17s-0.64-1.23-1.13-1.71
		c-0.49-0.48-1.06-0.86-1.71-1.12c-0.65-0.26-1.36-0.39-2.14-0.39c-0.78,0-1.5,0.13-2.16,0.39c-0.67,0.26-1.24,0.64-1.72,1.13
		c-0.48,0.49-0.86,1.06-1.14,1.71c-0.28,0.65-0.42,1.37-0.42,2.16c0,0.78,0.14,1.49,0.42,2.15s0.66,1.23,1.14,1.72
		c0.48,0.49,1.06,0.87,1.72,1.13C1213.24,334.17,1213.96,334.3,1214.74,334.3z"/>
	<path class="st19" d="M1226.01,336.58v-15.36h2.35l9.63,11.85h-1.16v-11.85h2.81v15.36h-2.35l-9.61-11.85h1.16v11.85H1226.01z"/>
	<path class="st19" d="M1257.03,336.8c-1.18,0-2.29-0.2-3.3-0.59c-1.02-0.39-1.9-0.95-2.64-1.67s-1.32-1.55-1.73-2.51
		c-0.41-0.96-0.61-2-0.61-3.13c0-1.14,0.2-2.19,0.61-3.15c0.41-0.96,0.99-1.79,1.73-2.5c0.75-0.71,1.62-1.26,2.63-1.66
		c1.01-0.39,2.11-0.59,3.31-0.59c1.18,0,2.28,0.19,3.29,0.58c1.01,0.39,1.88,0.94,2.62,1.65c0.74,0.71,1.31,1.55,1.72,2.51
		c0.41,0.96,0.61,2.02,0.61,3.16s-0.21,2.19-0.61,3.15c-0.41,0.96-0.98,1.8-1.72,2.51c-0.74,0.72-1.61,1.27-2.62,1.66
		C1259.31,336.61,1258.21,336.8,1257.03,336.8z M1257.03,334.3c0.77,0,1.49-0.13,2.14-0.4c0.65-0.26,1.22-0.64,1.7-1.12
		c0.48-0.48,0.86-1.05,1.13-1.71s0.41-1.38,0.41-2.17c0-0.79-0.13-1.51-0.39-2.17s-0.64-1.23-1.13-1.71
		c-0.49-0.48-1.06-0.86-1.71-1.12c-0.65-0.26-1.36-0.39-2.14-0.39c-0.78,0-1.5,0.13-2.16,0.39c-0.67,0.26-1.24,0.64-1.72,1.13
		c-0.48,0.49-0.86,1.06-1.14,1.71c-0.28,0.65-0.42,1.37-0.42,2.16c0,0.78,0.14,1.49,0.42,2.15s0.66,1.23,1.14,1.72
		c0.48,0.49,1.06,0.87,1.72,1.13C1255.53,334.17,1256.25,334.3,1257.03,334.3z"/>
	<path class="st19" d="M1271.16,336.58h-2.85v-15.36h11.21v2.41h-8.36V336.58z M1270.94,328.31h7.63v2.37h-7.63V328.31z"/>
	<path class="st19" d="M1286.16,336.58l6.91-15.36h2.81l6.93,15.36h-3.01l-5.92-13.84h1.14l-5.94,13.84H1286.16z M1289.34,333.03
		l0.79-2.24h8.27l0.77,2.24H1289.34z"/>
	<path class="st19" d="M1311.72,336.8c-1.2,0-2.3-0.19-3.3-0.58c-1-0.39-1.88-0.94-2.62-1.66c-0.75-0.72-1.32-1.55-1.73-2.5
		c-0.41-0.95-0.61-2-0.61-3.16s0.2-2.21,0.61-3.16c0.41-0.95,0.99-1.78,1.74-2.5c0.75-0.72,1.63-1.27,2.63-1.66
		c1-0.39,2.12-0.58,3.35-0.58c1.29,0,2.45,0.21,3.5,0.64c1.05,0.42,1.93,1.05,2.64,1.87l-1.8,1.75c-0.6-0.6-1.25-1.04-1.94-1.33
		c-0.69-0.29-1.46-0.43-2.29-0.43c-0.82,0-1.57,0.13-2.25,0.39c-0.68,0.26-1.27,0.64-1.77,1.12c-0.5,0.48-0.88,1.05-1.16,1.71
		s-0.42,1.38-0.42,2.17c0,0.78,0.14,1.5,0.42,2.16c0.28,0.67,0.67,1.24,1.16,1.72c0.5,0.48,1.08,0.86,1.75,1.12
		c0.67,0.26,1.42,0.4,2.24,0.4c0.76,0,1.5-0.12,2.2-0.36c0.71-0.24,1.39-0.65,2.03-1.22l1.6,2.13c-0.79,0.64-1.71,1.13-2.76,1.46
		C1313.89,336.64,1312.81,336.8,1311.72,336.8z M1315.03,334.48v-5.73h2.68v6.1L1315.03,334.48z"/>
	<path class="st19" d="M1321.48,336.58v-15.36h6.32c1.36,0,2.53,0.22,3.5,0.65c0.97,0.43,1.72,1.06,2.25,1.88s0.79,1.8,0.79,2.94
		c0,1.13-0.26,2.09-0.79,2.9c-0.53,0.8-1.28,1.43-2.25,1.87c-0.97,0.44-2.14,0.66-3.5,0.66h-4.72l1.25-1.27v5.75H1321.48z
		 M1324.33,331.14l-1.25-1.38h4.58c1.26,0,2.2-0.27,2.84-0.81s0.95-1.29,0.95-2.26s-0.32-1.71-0.95-2.25
		c-0.64-0.53-1.58-0.8-2.84-0.8h-4.58l1.25-1.4V331.14z M1331.53,336.58l-3.88-5.57h3.05l3.91,5.57H1331.53z"/>
	<path class="st19" d="M1337.52,336.58v-15.36h2.85v15.36H1337.52z"/>
	<path class="st19" d="M1351.62,336.8c-1.19,0-2.27-0.19-3.27-0.58c-0.99-0.39-1.86-0.94-2.6-1.66c-0.74-0.72-1.31-1.55-1.72-2.5
		c-0.41-0.95-0.61-2-0.61-3.16s0.2-2.21,0.61-3.16c0.41-0.95,0.99-1.78,1.73-2.5c0.75-0.72,1.62-1.27,2.61-1.66
		c0.99-0.39,2.08-0.58,3.27-0.58c1.26,0,2.41,0.22,3.44,0.65c1.04,0.43,1.92,1.07,2.63,1.92l-1.84,1.73
		c-0.57-0.6-1.2-1.05-1.89-1.35c-0.69-0.3-1.43-0.45-2.22-0.45c-0.8,0-1.54,0.13-2.2,0.39c-0.67,0.26-1.24,0.64-1.73,1.12
		c-0.49,0.48-0.87,1.05-1.15,1.71s-0.42,1.38-0.42,2.17c0,0.79,0.14,1.51,0.42,2.17s0.66,1.23,1.15,1.71
		c0.49,0.48,1.07,0.86,1.73,1.12c0.67,0.26,1.4,0.4,2.2,0.4c0.79,0,1.53-0.15,2.22-0.45c0.69-0.3,1.32-0.76,1.89-1.37l1.84,1.73
		c-0.72,0.85-1.59,1.49-2.63,1.93C1354.05,336.58,1352.89,336.8,1351.62,336.8z"/>
	<path class="st19" d="M1367.02,336.8c-2.09,0-3.73-0.59-4.92-1.78s-1.79-2.9-1.79-5.16v-8.64h2.85v8.55c0,1.58,0.34,2.73,1.02,3.44
		c0.68,0.72,1.64,1.08,2.88,1.08s2.2-0.36,2.87-1.08c0.67-0.72,1.01-1.86,1.01-3.44v-8.55h2.81v8.64c0,2.25-0.6,3.97-1.79,5.16
		S1369.13,336.8,1367.02,336.8z"/>
	<path class="st19" d="M1377.75,336.58v-15.36h2.85v12.94h8.03v2.41H1377.75z"/>
	<path class="st19" d="M1392.58,336.58v-12.94h-5.09v-2.41h13.03v2.41h-5.09v12.94H1392.58z"/>
	<path class="st19" d="M1408.96,336.8c-2.09,0-3.73-0.59-4.92-1.78s-1.79-2.9-1.79-5.16v-8.64h2.85v8.55c0,1.58,0.34,2.73,1.02,3.44
		c0.68,0.72,1.64,1.08,2.88,1.08s2.2-0.36,2.87-1.08c0.67-0.72,1.01-1.86,1.01-3.44v-8.55h2.81v8.64c0,2.25-0.6,3.97-1.79,5.16
		S1411.07,336.8,1408.96,336.8z"/>
	<path class="st19" d="M1419.69,336.58v-15.36h6.32c1.36,0,2.53,0.22,3.5,0.65c0.97,0.43,1.72,1.06,2.25,1.88s0.79,1.8,0.79,2.94
		c0,1.13-0.26,2.09-0.79,2.9c-0.53,0.8-1.28,1.43-2.25,1.87c-0.97,0.44-2.14,0.66-3.5,0.66h-4.72l1.25-1.27v5.75H1419.69z
		 M1422.54,331.14l-1.25-1.38h4.58c1.26,0,2.2-0.27,2.84-0.81s0.95-1.29,0.95-2.26s-0.32-1.71-0.95-2.25
		c-0.64-0.53-1.58-0.8-2.84-0.8h-4.58l1.25-1.4V331.14z M1429.74,336.58l-3.88-5.57h3.05l3.91,5.57H1429.74z"/>
	<path class="st19" d="M1438.58,334.17h8.67v2.41h-11.52v-15.36h11.21v2.41h-8.36V334.17z M1438.36,327.61h7.63v2.35h-7.63V327.61z"
		/>
	<path class="st19" d="M1456.48,336.58v-15.36h2.85v15.36H1456.48z"/>
	<path class="st19" d="M1463.48,336.58v-15.36h2.35l9.63,11.85h-1.16v-11.85h2.81v15.36h-2.35l-9.61-11.85h1.16v11.85H1463.48z"/>
	<path class="st19" d="M1494.47,336.8c-1.2,0-2.3-0.19-3.3-0.58c-1-0.39-1.88-0.94-2.62-1.66c-0.75-0.72-1.32-1.55-1.73-2.5
		c-0.41-0.95-0.61-2-0.61-3.16s0.2-2.21,0.61-3.16c0.41-0.95,0.99-1.78,1.74-2.5c0.75-0.72,1.63-1.27,2.63-1.66
		c1-0.39,2.12-0.58,3.35-0.58c1.29,0,2.45,0.21,3.5,0.64c1.05,0.42,1.93,1.05,2.64,1.87l-1.8,1.75c-0.6-0.6-1.25-1.04-1.94-1.33
		c-0.69-0.29-1.46-0.43-2.29-0.43c-0.82,0-1.57,0.13-2.25,0.39c-0.68,0.26-1.27,0.64-1.77,1.12c-0.5,0.48-0.88,1.05-1.16,1.71
		s-0.42,1.38-0.42,2.17c0,0.78,0.14,1.5,0.42,2.16c0.28,0.67,0.67,1.24,1.16,1.72c0.5,0.48,1.08,0.86,1.75,1.12
		c0.67,0.26,1.42,0.4,2.24,0.4c0.76,0,1.5-0.12,2.2-0.36c0.71-0.24,1.39-0.65,2.03-1.22l1.6,2.13c-0.79,0.64-1.71,1.13-2.76,1.46
		C1496.64,336.64,1495.57,336.8,1494.47,336.8z M1497.79,334.48v-5.73h2.68v6.1L1497.79,334.48z"/>
	<path class="st19" d="M1507.09,336.58h-2.85v-15.36h2.85V336.58z M1515.25,330h-8.38v-2.44h8.38V330z M1515.03,321.23h2.83v15.36
		h-2.83V321.23z"/>
	<path class="st19" d="M1519.83,336.58l6.91-15.36h2.81l6.93,15.36h-3.01l-5.92-13.84h1.14l-5.94,13.84H1519.83z M1523.01,333.03
		l0.79-2.24h8.27l0.77,2.24H1523.01z"/>
	<path class="st19" d="M1538.43,336.58v-15.36h2.35l9.63,11.85h-1.16v-11.85h2.81v15.36h-2.35l-9.61-11.85h1.16v11.85H1538.43z"/>
	<path class="st19" d="M1554.03,336.58l6.91-15.36h2.81l6.93,15.36h-3.01l-5.92-13.84h1.14l-5.94,13.84H1554.03z M1557.21,333.03
		l0.79-2.24h8.27l0.77,2.24H1557.21z"/>
</g>
</svg>
